<svg xmlns="http://www.w3.org/2000/svg" viewBox="0 0 120.6 120.6"><defs><style>.cls-1{fill:#e8efff;}.cls-2{fill:#1857ca;}.cls-3{fill:#d5dceb;}.cls-4{fill:#f9cc69;}.cls-5{fill:#ffc947;}.cls-6,.cls-7,.cls-8{fill:#eaeef0;}.cls-7{opacity:0.4;}.cls-8{opacity:0.2;}.cls-9{fill:#efbb48;}.cls-10{fill:#fff;}</style></defs><g id="Layer_2" data-name="Layer 2"><g id="Objects"><path class="cls-1" d="M120.6,60.3c0,.69,0,1.38,0,2.07v0c0,.53,0,1.05-.08,1.57,0,.3,0,.59,0,.88-.05.62-.1,1.23-.16,1.83-.13,1.21-.29,2.4-.49,3.59,0,.15,0,.29-.08.43q-.15.89-.33,1.74a.36.36,0,0,1,0,.11c-.12.59-.25,1.18-.39,1.76s-.23.94-.35,1.4-.19.72-.3,1.08c-.35,1.23-.74,2.45-1.16,3.65q-.27.76-.57,1.53l0,.08c-.21.55-.44,1.1-.67,1.65l-.23.53c-.18.42-.36.84-.56,1.26,0,.12-.11.23-.16.35-.25.53-.5,1.05-.77,1.57-.58,1.17-1.2,2.31-1.87,3.43h0c-.6,1-1.24,2-1.9,3a60.66,60.66,0,0,1-5.23,6.71l-.89,1c-.51.54-1,1.08-1.56,1.6-.37.36-.74.72-1.12,1.07s-.81.76-1.23,1.13l-.06.06-1.25,1.07-.83.69-.69.55a57.79,57.79,0,0,1-4.9,3.47l-.87.54a59.23,59.23,0,0,1-6.83,3.6c-.29.14-.58.26-.87.39l-1.19.49-1.33.52q-2.67,1-5.48,1.76c-.44.13-.89.24-1.34.35l-1.36.32q-.44.1-.87.18c-.4.09-.81.17-1.22.24-.58.11-1.16.21-1.75.3h0c-1.16.17-2.33.32-3.51.42-.6.06-1.2.1-1.8.14-1.28.09-2.57.13-3.87.13s-2.59,0-3.87-.13c-.6,0-1.2-.08-1.8-.14-1.19-.1-2.37-.25-3.54-.43-.59-.09-1.17-.19-1.75-.3s-1.34-.25-2-.4l-1.45-.34c-.57-.14-1.13-.28-1.69-.44l-1.68-.49-1.56-.5c-.68-.23-1.36-.47-2-.73l-1.28-.5q-.93-.37-1.83-.78l-1.35-.62c-.52-.24-1-.5-1.54-.76s-1-.52-1.52-.8-1-.55-1.49-.84A60.3,60.3,0,1,1,111.85,29l0,0c.36.6.72,1.21,1.06,1.83s.62,1.11.9,1.67.59,1.14.86,1.72c.15.3.3.61.43.92.26.55.5,1.1.74,1.66s.5,1.22.74,1.84.51,1.36.74,2c.48,1.37.9,2.77,1.27,4.19.29,1.07.54,2.15.76,3.24,0,.24.1.49.14.74.11.54.21,1.09.3,1.64.21,1.27.38,2.56.5,3.86.06.53.1,1.07.13,1.61,0,.25,0,.5,0,.75s0,.66.05,1,0,.57,0,.85Q120.6,59.44,120.6,60.3Z"/><path class="cls-2" d="M118.61,44.91H29.93V32.17A3.17,3.17,0,0,1,33.1,29h78.75A59.73,59.73,0,0,1,118.61,44.91Z"/><path class="cls-3" d="M120.6,60.3c0,.69,0,1.38,0,2.07v0c0,.53,0,1.05-.08,1.57,0,.3,0,.59,0,.88-.05.62-.1,1.23-.16,1.83-.13,1.21-.3,2.41-.49,3.59,0,.15,0,.29-.08.43q-.15.89-.33,1.74a.36.36,0,0,1,0,.11c-.12.59-.25,1.18-.39,1.76s-.23.94-.35,1.4l-.3,1.08c-.35,1.23-.74,2.45-1.16,3.65q-.27.76-.57,1.53l0,.08c-.21.55-.44,1.1-.67,1.65l-.23.53c-.18.42-.36.84-.56,1.26,0,.12-.11.23-.16.35-.25.53-.5,1.05-.77,1.57-.59,1.17-1.21,2.31-1.87,3.43h0c-.6,1-1.24,2-1.9,3a60.66,60.66,0,0,1-5.23,6.71l-.89,1c-.51.54-1,1.08-1.56,1.6-.37.36-.74.72-1.12,1.07s-.81.76-1.23,1.13l-.06.06-1.25,1.07-.83.69-.69.55a57.79,57.79,0,0,1-4.9,3.47l-.87.54a59.23,59.23,0,0,1-6.83,3.6c-.29.14-.58.26-.87.39l-1.19.49-1.33.52q-2.67,1-5.48,1.76c-.44.13-.89.24-1.34.35l-1.36.32q-.44.1-.87.18c-.4.09-.81.17-1.22.24-.58.11-1.16.21-1.75.3h0q-1.74.25-3.51.42c-.6.06-1.2.1-1.8.14H56.43c-.6,0-1.2-.08-1.8-.14-1.19-.11-2.37-.25-3.54-.43-.59-.09-1.17-.19-1.75-.3s-1.34-.25-2-.4l-1.45-.34c-.57-.14-1.13-.28-1.69-.44l-1.68-.49-1.56-.5c-.68-.23-1.36-.47-2-.73l-1.28-.5q-.93-.37-1.83-.78l-1.35-.62c-.52-.24-1-.5-1.54-.76s-1-.52-1.52-.8-1-.55-1.49-.84V44.91h88.68c.28,1.07.54,2.15.76,3.24,0,.24.1.49.14.74.11.54.21,1.09.3,1.64.21,1.28.38,2.56.5,3.86.06.53.1,1.07.13,1.61,0,.25,0,.5,0,.75s0,.66.05,1,0,.57,0,.85Q120.6,59.44,120.6,60.3Z"/><path class="cls-4" d="M113.45,38.86H77.66a2.07,2.07,0,1,1,0-4.13h35.79a2.1,2.1,0,0,1,2.07,2.06A2.22,2.22,0,0,1,113.45,38.86Z"/><path class="cls-5" d="M41.87,38.86h-4a2.07,2.07,0,1,1,0-4.13h4a2.1,2.1,0,0,1,2.06,2.06A2.22,2.22,0,0,1,41.87,38.86Z"/><path class="cls-5" d="M59.68,38.86h-4a2.07,2.07,0,1,1,0-4.13h4a2.07,2.07,0,1,1,0,4.13Z"/><path class="cls-6" d="M69.39,54.58v20.9a2.53,2.53,0,0,1-2.48,2.57H38.31a2.53,2.53,0,0,1-2.49-2.57V54.58A2.53,2.53,0,0,1,38.31,52h28.6A2.53,2.53,0,0,1,69.39,54.58Z"/><path class="cls-6" d="M69.39,88.14V109a2.53,2.53,0,0,1-2.48,2.57H38.31A2.53,2.53,0,0,1,35.82,109V88.14a2.53,2.53,0,0,1,2.49-2.57h28.6A2.53,2.53,0,0,1,69.39,88.14Z"/><path class="cls-6" d="M110.48,60.34H74.69a2.07,2.07,0,1,1,0-4.14h35.79a2.1,2.1,0,0,1,2.07,2.07A2.22,2.22,0,0,1,110.48,60.34Z"/><rect class="cls-7" x="72.62" y="62.96" width="27.87" height="4.14" rx="2.07"/><rect class="cls-8" x="72.62" y="69.72" width="21.31" height="4.14" rx="1.81"/><path class="cls-6" d="M112.29,90.85h0c-.6,1-1.24,2-1.9,3H74.69a2.07,2.07,0,1,1,0-4.13h35.79A2.09,2.09,0,0,1,112.29,90.85Z"/><rect class="cls-7" x="72.62" y="96.52" width="27.87" height="4.14" rx="2.07"/><rect class="cls-8" x="72.62" y="103.28" width="21.31" height="4.14" rx="1.81"/><circle class="cls-9" cx="43.93" cy="45.72" r="28.14"/><path class="cls-10" d="M33.57,58.25c-1.76,0-2.63-1.49-1.91-2.69a5.23,5.23,0,0,1,.89-1L53.21,33.89a7.74,7.74,0,0,1,.89-.83,1.68,1.68,0,0,1,2.33.2,1.7,1.7,0,0,1,.18,2.33,3.93,3.93,0,0,1-.54.61Q45.5,46.76,34.92,57.33A7,7,0,0,1,33.57,58.25Z"/><path class="cls-10" d="M43.42,37a6.27,6.27,0,1,1-6.25-6.32A6.35,6.35,0,0,1,43.42,37Zm-8.86-.07a2.59,2.59,0,1,0,5.18.1,2.59,2.59,0,1,0-5.18-.1Z"/><path class="cls-10" d="M44.24,54.5a6.22,6.22,0,0,1,6.26-6.26,6.28,6.28,0,0,1,0,12.56A6.22,6.22,0,0,1,44.24,54.5Zm6.29,2.6a2.53,2.53,0,0,0,2.55-2.56,2.58,2.58,0,0,0-2.64-2.63,2.62,2.62,0,0,0-2.57,2.59A2.57,2.57,0,0,0,50.53,57.1Z"/></g></g></svg>