<svg width="72" height="72" viewBox="0 0 72 72" fill="none" xmlns="http://www.w3.org/2000/svg">
<path d="M4.5 27.3C4.5 19.3193 4.5 15.3289 6.05316 12.2806C7.41935 9.59933 9.59933 7.41935 12.2806 6.05316C15.3289 4.5 19.3193 4.5 27.3 4.5H44.7C52.6807 4.5 56.6711 4.5 59.7194 6.05316C62.4007 7.41935 64.5807 9.59933 65.9468 12.2806C67.5 15.3289 67.5 19.3193 67.5 27.3V44.7C67.5 52.6807 67.5 56.6711 65.9468 59.7194C64.5807 62.4007 62.4007 64.5807 59.7194 65.9468C56.6711 67.5 52.6808 67.5 44.7 67.5H27.3C19.3193 67.5 15.3289 67.5 12.2806 65.9468C9.59933 64.5807 7.41935 62.4007 6.05316 59.7194C4.5 56.6711 4.5 52.6808 4.5 44.7V27.3Z" fill="#00005B"/>
<path d="M31.026 44.0187H21.2634L19.2771 50.3593C19.2219 50.5944 19.0054 50.761 18.7699 50.7494H13.8252C13.5432 50.7494 13.4446 50.5905 13.5294 50.2726L21.9818 25.4084C22.0664 25.1484 22.1509 24.8942 22.2355 24.5616C22.346 23.9832 22.4026 23.3954 22.4045 22.8061C22.3803 22.632 22.5306 22.4778 22.7004 22.5026H29.42C29.6169 22.5026 29.7296 22.5749 29.7581 22.7194L39.3518 50.3159C39.4363 50.6051 39.3517 50.7496 39.0981 50.7494H33.604C33.4113 50.7713 33.2273 50.6392 33.1814 50.446L31.026 44.0187ZM22.7848 38.6724H29.4623C28.3652 34.9235 27.1271 31.2238 26.1236 27.4457C24.9865 31.3648 23.9365 34.9994 22.7848 38.6724Z" fill="#9999FF"/>
<path d="M46.4869 41.5703C46.8754 44.7899 49.5789 46.3248 52.5727 46.2594C54.2607 46.2262 56.0649 45.9642 57.6422 45.3258C57.7828 45.2107 57.8536 45.2825 57.8536 45.5426V49.6605C57.8669 49.8747 57.7774 50.0661 57.5999 50.1806C55.6394 51.0713 53.3888 51.3398 51.2625 51.3057C44.9224 51.3057 40.5683 46.8385 40.5701 40.3391C40.5535 34.1799 44.5493 28.9838 50.7553 28.9838C56.016 28.8474 59.658 33.0593 59.6727 38.3019C59.6727 39.2567 59.6194 40.2149 59.5037 41.1627C59.4812 41.358 59.3149 41.5096 59.1232 41.5095C54.9218 41.5095 50.6998 41.5703 46.4869 41.5703ZM46.4869 37.6216C48.8283 37.6216 51.1834 37.7044 53.5235 37.5999C53.8752 37.5639 54.1364 37.4972 54.1364 37.1315C54.0875 35.1879 52.4474 33.5895 50.5441 33.6638C48.2444 33.5213 46.7727 35.4624 46.4869 37.6216Z" fill="#9999FF"/>
</svg>
