<svg width="72" height="72" viewBox="0 0 72 72" fill="none" xmlns="http://www.w3.org/2000/svg">
<path fill-rule="evenodd" clip-rule="evenodd" d="M28.331 8.73998C30.6004 7.4724 33.2159 6.75 36 6.75C38.7841 6.75 41.3996 7.4724 43.669 8.73998L45.3295 7.07951C45.7688 6.64017 46.4812 6.64017 46.9205 7.07951C47.3598 7.51884 47.3598 8.23116 46.9205 8.67049L45.5876 10.0034C49.3347 12.8826 51.75 17.4092 51.75 22.5H20.25C20.25 17.4092 22.6653 12.8826 26.4124 10.0034L25.0795 8.67049C24.6402 8.23116 24.6402 7.51884 25.0795 7.07951C25.5188 6.64017 26.2312 6.64017 26.6705 7.07951L28.331 8.73998ZM31.5 15.75C31.5 16.9926 30.4926 18 29.25 18C28.0074 18 27 16.9926 27 15.75C27 14.5074 28.0074 13.5 29.25 13.5C30.4926 13.5 31.5 14.5074 31.5 15.75ZM42.75 18C43.9926 18 45 16.9926 45 15.75C45 14.5074 43.9926 13.5 42.75 13.5C41.5074 13.5 40.5 14.5074 40.5 15.75C40.5 16.9926 41.5074 18 42.75 18Z" fill="#87C527"/>
<path d="M11.25 28.125C11.25 26.261 12.761 24.75 14.625 24.75C16.489 24.75 18 26.261 18 28.125V41.625C18 43.489 16.489 45 14.625 45C12.761 45 11.25 43.489 11.25 41.625V28.125Z" fill="#87C527"/>
<path d="M27 54V61.875C27 63.739 28.511 65.25 30.375 65.25C32.239 65.25 33.75 63.739 33.75 61.875V54H38.25V61.875C38.25 63.739 39.761 65.25 41.625 65.25C43.489 65.25 45 63.739 45 61.875V54H47.25C49.7353 54 51.75 51.9853 51.75 49.5V24.75H20.25V49.5C20.25 51.9853 22.2647 54 24.75 54H27Z" fill="#87C527"/>
<path d="M54 28.125C54 26.261 55.511 24.75 57.375 24.75C59.239 24.75 60.75 26.261 60.75 28.125V41.625C60.75 43.489 59.239 45 57.375 45C55.511 45 54 43.489 54 41.625V28.125Z" fill="#87C527"/>
</svg>
