<svg width="72" height="72" viewBox="0 0 72 72" fill="none" xmlns="http://www.w3.org/2000/svg">
<path d="M50.4608 27.4883L50.0344 27.2554C50.2588 27.7977 50.332 28.26 50.3241 28.6735C50.408 28.3332 50.4548 27.9849 50.4636 27.6345C50.4701 28.0579 50.4184 28.4802 50.31 28.8895L50.3241 28.6729C50.2027 29.1823 49.9986 29.6684 49.72 30.1118L49.8522 29.9712C48.2322 32.6819 43.8126 33.2742 41.6329 30.4746C38.1342 25.9802 41.7049 21.1349 42.205 16.3755C42.8299 10.4108 39.0899 4.61986 34.452 1.1543C37.0064 5.28642 33.6409 10.7539 30.9482 13.8094C28.3371 16.7732 25.1624 19.2471 22.2801 21.9381C19.1847 24.831 16.2068 27.8753 13.6632 31.2689C8.5731 38.0605 5.45629 46.6026 7.74679 55.0767C10.035 63.5457 17.37 68.9361 25.6534 70.8419C21.4746 69.0351 17.5641 64.4445 17.5551 59.7477C17.5444 54.6255 20.7895 50.278 24.8265 47.421C24.3411 49.2542 24.0762 50.931 25.2782 52.5707C26.3965 54.0957 28.354 54.8359 30.2018 54.4337C34.5212 53.4893 34.7187 48.7412 32.1587 45.9749C29.6269 43.2366 27.1778 40.1412 28.1408 36.1688C28.6234 34.1775 29.8463 32.3134 31.396 30.9792C30.2046 34.1084 33.588 37.1942 35.8167 38.7299C39.6844 41.3967 43.9257 43.4127 47.4818 46.5379C51.2213 49.8229 53.9837 54.2644 53.4257 59.4169C52.8205 65.0009 48.3835 68.8849 43.407 70.8452C53.9235 68.5232 64.7922 60.3608 65.0132 48.6962C65.1983 39.1011 58.6159 31.716 50.4608 27.4883V27.4883Z" fill="#EE4323"/>
</svg>
