<svg xmlns="http://www.w3.org/2000/svg" viewBox="0 0 120.6 120.6"><defs><style>.cls-1{fill:#e8efff;}.cls-2{fill:#1857ca;}.cls-3{fill:#efbb48;}.cls-4{fill:#fff;}</style></defs><g id="Layer_2" data-name="Layer 2"><g id="Objects"><path class="cls-1" d="M120.6,60.3A60.3,60.3,0,1,1,60.3,0,60.3,60.3,0,0,1,120.6,60.3Z"/><path class="cls-2" d="M60.16,91.48H31.77c-2.38,0-2.71-.35-2.6-2.69a28.09,28.09,0,0,1,28.29-27c4.58,0,9.16-.22,13.65,1.08A28.11,28.11,0,0,1,91.45,89.17c0,1.84-.44,2.31-2.47,2.31Z"/><path class="cls-2" d="M60.27,29.12A14.85,14.85,0,1,1,45.49,44,14.8,14.8,0,0,1,60.27,29.12Z"/><circle class="cls-3" cx="82.11" cy="70.29" r="11.79"/><path class="cls-4" d="M77.37,71.8l2.87,2.87,6.24-6.25-2.86-2.87Z"/><path class="cls-4" d="M87.05,67.84a9.81,9.81,0,0,0,1-1,2.06,2.06,0,0,0-3-2.85c-.33.29-.62.63-.92.94Z"/><path class="cls-4" d="M79.61,75.14l-2.7-2.69s0,.09-.07.14c-.36,1-.71,2.1-1.06,3.15-.06.17-.1.34,0,.46a.44.44,0,0,0,.34.09C77.32,75.92,78.46,75.53,79.61,75.14Z"/></g></g></svg>