<svg xmlns="http://www.w3.org/2000/svg" viewBox="0 0 120.6 120.6"><defs><style>.cls-1{fill:#e8efff;}.cls-2{fill:#d5dceb;}.cls-3{fill:#fff;}.cls-4{fill:#1857ca;}.cls-5{fill:#1c50a3;}.cls-6{fill:none;stroke:#efbb48;stroke-linecap:round;stroke-miterlimit:10;stroke-width:1.3px;}</style></defs><g id="Layer_2" data-name="Layer 2"><g id="Objects"><path class="cls-1" d="M120.6,60.3c0,.69,0,1.38,0,2.07v0c0,.53,0,1.05-.08,1.57,0,.3,0,.59,0,.88-.05.62-.1,1.23-.16,1.83,0,.11,0,.22,0,.33-.12,1.1-.27,2.18-.45,3.26,0,.15,0,.29-.08.43q-.15.89-.33,1.74a.36.36,0,0,1,0,.11c-.12.59-.25,1.18-.39,1.76s-.23.94-.35,1.4-.19.72-.3,1.08c-.35,1.23-.74,2.45-1.16,3.65q-.27.76-.57,1.53l0,.08c-.21.55-.44,1.1-.67,1.65l-.23.53-.22.51c-.11.25-.22.5-.34.75s-.11.23-.16.35c-.25.53-.5,1.05-.77,1.57-.58,1.17-1.2,2.31-1.87,3.43h0c-.6,1-1.24,2-1.9,3a60.66,60.66,0,0,1-5.23,6.71l-.89,1c-.51.54-1,1.08-1.56,1.6-.37.36-.74.72-1.12,1.07s-.81.76-1.23,1.13l-.06.06-1.25,1.07-.83.69-.69.55a57.79,57.79,0,0,1-4.9,3.47l-.87.54-.75.44a57.4,57.4,0,0,1-6.08,3.16c-.29.14-.58.26-.87.39l-1.19.49-1.07.42-.26.1q-2.67,1-5.48,1.76c-.44.13-.89.24-1.34.35l-1.36.32q-.44.1-.87.18c-.4.09-.81.17-1.22.24-.58.11-1.16.21-1.75.3h0c-1.16.17-2.33.32-3.51.42-.6.06-1.2.1-1.8.14-1.28.09-2.57.13-3.87.13s-2.59,0-3.87-.13c-.6,0-1.2-.08-1.8-.14-1.19-.1-2.37-.25-3.54-.43-.59-.09-1.17-.19-1.75-.3s-1.34-.25-2-.4l-1.45-.34c-.57-.14-1.13-.28-1.69-.44l-1.68-.49-1.56-.5c-.68-.23-1.36-.47-2-.73l-.13,0c-.39-.14-.77-.3-1.15-.45-.55-.22-1.08-.45-1.61-.69l-.22-.09-1.35-.62c-.52-.24-1-.5-1.54-.76s-1-.52-1.52-.8-1-.55-1.49-.84q-1.68-1-3.3-2.07A60.3,60.3,0,1,1,108,23.38,58.91,58.91,0,0,1,111.85,29l0,0c.36.6.72,1.21,1.06,1.83l.19.34c.25.44.49.88.71,1.33s.59,1.14.86,1.72c.15.3.3.61.43.92.26.55.5,1.1.74,1.66s.5,1.22.74,1.84.51,1.36.74,2c.48,1.37.9,2.77,1.27,4.19.29,1.07.54,2.15.76,3.24,0,.24.1.49.14.74.11.54.21,1.09.3,1.64.17,1,.32,2.09.42,3.15,0,.23.06.47.08.71.06.53.1,1.07.13,1.61,0,.25,0,.5,0,.75s0,.66.05,1,0,.57,0,.85Q120.6,59.44,120.6,60.3Z"/><path class="cls-1" d="M120.6,60.3c0,.69,0,1.38,0,2.07v0c0,.53,0,1.05-.08,1.57,0,.3,0,.59,0,.88-.05.62-.1,1.23-.16,1.83-.13,1.21-.29,2.4-.49,3.59,0,.15,0,.29-.08.43q-.15.89-.33,1.74a.36.36,0,0,1,0,.11c-.12.59-.25,1.18-.39,1.76s-.23.94-.35,1.4-.19.72-.3,1.08c-.35,1.23-.74,2.45-1.16,3.65q-.27.76-.57,1.53l0,.08c-.21.55-.44,1.1-.67,1.65l-.23.53c-.18.42-.36.84-.56,1.26,0,.12-.11.23-.16.35-.25.53-.5,1.05-.77,1.57-.58,1.17-1.2,2.31-1.87,3.43h0c-.6,1-1.24,2-1.9,3a60.66,60.66,0,0,1-5.23,6.71l-.89,1c-.51.54-1,1.08-1.56,1.6-.37.36-.74.72-1.12,1.07s-.81.76-1.23,1.13l-.06.06-1.25,1.07-.83.69-.69.55a57.79,57.79,0,0,1-4.9,3.47l-.87.54a59.23,59.23,0,0,1-6.83,3.6c-.29.14-.58.26-.87.39l-1.19.49-1.33.52q-2.67,1-5.48,1.76c-.44.13-.89.24-1.34.35l-1.36.32q-.44.1-.87.18c-.4.09-.81.17-1.22.24-.58.11-1.16.21-1.75.3h0c-1.16.17-2.33.32-3.51.42-.6.06-1.2.1-1.8.14-1.28.09-2.57.13-3.87.13s-2.59,0-3.87-.13c-.6,0-1.2-.08-1.8-.14-1.19-.1-2.37-.25-3.54-.43-.59-.09-1.17-.19-1.75-.3s-1.34-.25-2-.4l-1.45-.34c-.57-.14-1.13-.28-1.69-.44l-1.68-.49-1.56-.5c-.68-.23-1.36-.47-2-.73l-1.28-.5q-.93-.37-1.83-.78l-1.35-.62c-.52-.24-1-.5-1.54-.76s-1-.52-1.52-.8-1-.55-1.49-.84A60.3,60.3,0,1,1,111.85,29l0,0c.36.6.72,1.21,1.06,1.83s.62,1.11.9,1.67.59,1.14.86,1.72c.15.3.3.61.43.92.26.55.5,1.1.74,1.66s.5,1.22.74,1.84.51,1.36.74,2c.48,1.37.9,2.77,1.27,4.19.29,1.07.54,2.15.76,3.24,0,.24.1.49.14.74.11.54.21,1.09.3,1.64.21,1.27.38,2.56.5,3.86.06.53.1,1.07.13,1.61,0,.25,0,.5,0,.75s0,.66.05,1,0,.57,0,.85Q120.6,59.44,120.6,60.3Z"/><path class="cls-2" d="M119.81,50.53c-.09-.55-.19-1.1-.3-1.64,0-.25-.09-.5-.14-.74-.22-1.09-.47-2.17-.76-3.24-.37-1.42-.79-2.82-1.27-4.19-.23-.69-.48-1.37-.74-2s-.48-1.23-.74-1.84-.48-1.11-.74-1.66c-.13-.31-.28-.62-.43-.92-.27-.58-.56-1.15-.86-1.72s-.46-.89-.71-1.33H36.05v85.45H81.8l1.07-.42,1.19-.49c.29-.13.58-.25.87-.39A57.4,57.4,0,0,0,91,112.19l.75-.44.87-.54a57.79,57.79,0,0,0,4.9-3.47l.69-.55.83-.69,1.25-1.07.06-.06c.42-.37.83-.75,1.23-1.13s.75-.71,1.12-1.07c.53-.52,1.05-1.06,1.56-1.6l.89-1a60.66,60.66,0,0,0,5.23-6.71c.66-1,1.3-2,1.9-3h0c.67-1.12,1.29-2.26,1.87-3.43.27-.52.52-1,.77-1.57,0-.12.11-.23.16-.35s.23-.5.34-.75l.22-.51.23-.53c.23-.55.46-1.1.67-1.65l0-.08q.3-.77.57-1.53c.42-1.2.81-2.42,1.16-3.65q.16-.54.3-1.08c.12-.46.24-.93.35-1.4s.27-1.17.39-1.76a.36.36,0,0,0,0-.11q.18-.86.33-1.74c0-.14,0-.28.08-.43.18-1.08.33-2.16.45-3.26V53.68C120.13,52.62,120,51.57,119.81,50.53Z"/><path class="cls-3" d="M46.56,33.67A6.59,6.59,0,1,1,40,27.08,6.59,6.59,0,0,1,46.56,33.67Z"/><path class="cls-3" d="M57.73,33.67a6.59,6.59,0,1,1-6.58-6.59A6.58,6.58,0,0,1,57.73,33.67Z"/><path class="cls-3" d="M68.61,33.67A6.59,6.59,0,1,1,62,27.08,6.59,6.59,0,0,1,68.61,33.67Z"/><path class="cls-4" d="M120.57,58.59c0-.28,0-.57,0-.85s0-.66-.05-1,0-.5,0-.75c0-.54-.07-1.08-.13-1.61,0-.24,0-.48-.08-.71-.1-1.06-.25-2.11-.42-3.15-.09-.55-.19-1.1-.3-1.64,0-.25-.09-.5-.14-.74-.22-1.09-.47-2.17-.76-3.24-.37-1.42-.79-2.82-1.27-4.19-.23-.69-.48-1.37-.74-2s-.48-1.23-.74-1.84-.48-1.11-.74-1.66c-.13-.31-.28-.62-.43-.92-.27-.58-.56-1.15-.86-1.72s-.46-.89-.71-1.33l-.19-.34c-.34-.62-.7-1.23-1.06-1.83l0,0A58.91,58.91,0,0,0,108,23.38H36a9.19,9.19,0,0,0-9.35,9.35v77.6q1.62,1.08,3.3,2.07c.49.29,1,.57,1.49.84s1,.54,1.52.8,1,.52,1.54.76l1.35.62.22.09v1.14h2.76l.13,0c.66.26,1.34.5,2,.73l1.56.5,1.68.49c.56.16,1.12.3,1.69.44l1.45.34c.66.15,1.33.28,2,.4s1.16.21,1.75.3c1.17.18,2.35.33,3.54.43.6.06,1.2.1,1.8.14,1.28.09,2.57.13,3.87.13s2.59,0,3.87-.13c.6,0,1.2-.08,1.8-.14,1.18-.1,2.35-.25,3.51-.42h0c.59-.09,1.17-.19,1.75-.3.41-.07.82-.15,1.22-.24s.58-.11.87-.18l1.36-.32c.45-.11.9-.22,1.34-.35q2.81-.75,5.48-1.76l.26-.1,1.07-.42,1.19-.49c.29-.13.58-.25.87-.39A57.4,57.4,0,0,0,91,112.19H43.77A6.24,6.24,0,0,1,37.54,106V49.87a6.24,6.24,0,0,1,6.23-6.23H70.25c5.92,0,6.23,0,6.23-3.12a5.88,5.88,0,0,1,6.23-6.23H109.2a6.25,6.25,0,0,1,6.23,6.23V84.75l.22-.51.23-.53c.23-.55.46-1.1.67-1.65l0-.08q.3-.77.57-1.53c.42-1.2.81-2.42,1.16-3.65q.16-.54.3-1.08c.12-.46.24-.93.35-1.4s.27-1.17.39-1.76a.36.36,0,0,0,0-.11q.18-.86.33-1.74c0-.14,0-.28.08-.43.18-1.08.33-2.16.45-3.26,0-.11,0-.22,0-.33.06-.6.11-1.21.16-1.83,0-.29,0-.58,0-.88,0-.52.07-1,.08-1.57v0c0-.69,0-1.38,0-2.07S120.59,59.16,120.57,58.59ZM65.27,33.67a3.6,3.6,0,0,1-3.74,3.74,3.8,3.8,0,0,1-2.88-6.21,3.67,3.67,0,0,1,2.88-1.27,3.82,3.82,0,0,1,2.78,1.27A3.69,3.69,0,0,1,65.27,33.67Zm-18.08,0a3.69,3.69,0,0,1,1-2.47,3.68,3.68,0,0,1,5.56,0,3.69,3.69,0,0,1,1,2.47,3.74,3.74,0,1,1-7.48,0Zm-2.8,0a3.74,3.74,0,1,1-7.48,0,3.69,3.69,0,0,1,1-2.47,3.68,3.68,0,0,1,5.56,0A3.69,3.69,0,0,1,44.39,33.67Z"/><path class="cls-5" d="M76.48,69.93l-.56,0,.85,6.34-6-2a6.15,6.15,0,0,0-.22,1.62,6,6,0,1,0,6-6Z"/><path class="cls-3" d="M95.89,75c-.35-.53-8.68-13-19.41-13S57.43,74.44,57.08,75l-.61.92.61.92c.35.54,8.68,13,19.4,13s19.06-12.45,19.41-13l.61-.92ZM76.48,85.88a10,10,0,1,1,10-10A10,10,0,0,1,76.48,85.88Z"/><line class="cls-6" x1="46.36" y1="51.19" x2="46.36" y2="56.59"/><line class="cls-6" x1="43.66" y1="53.89" x2="49.06" y2="53.89"/><line class="cls-6" x1="44.45" y1="51.98" x2="48.27" y2="55.8"/><line class="cls-6" x1="48.27" y1="51.98" x2="44.45" y2="55.8"/><line class="cls-6" x1="53.37" y1="51.19" x2="53.37" y2="56.59"/><line class="cls-6" x1="50.68" y1="53.89" x2="56.07" y2="53.89"/><line class="cls-6" x1="51.47" y1="51.98" x2="55.28" y2="55.8"/><line class="cls-6" x1="55.28" y1="51.98" x2="51.47" y2="55.8"/><line class="cls-6" x1="61.16" y1="51.19" x2="61.16" y2="56.59"/><line class="cls-6" x1="58.46" y1="53.89" x2="63.86" y2="53.89"/><line class="cls-6" x1="59.25" y1="51.98" x2="63.07" y2="55.8"/><line class="cls-6" x1="63.07" y1="51.98" x2="59.25" y2="55.8"/><line class="cls-6" x1="69.21" y1="51.19" x2="69.21" y2="56.59"/><line class="cls-6" x1="66.51" y1="53.89" x2="71.91" y2="53.89"/><line class="cls-6" x1="67.31" y1="51.98" x2="71.12" y2="55.8"/><line class="cls-6" x1="71.12" y1="51.98" x2="67.31" y2="55.8"/></g></g></svg>