<svg width="72" height="72" viewBox="0 0 72 72" fill="none" xmlns="http://www.w3.org/2000/svg">
<path d="M15.3844 45.2925L21.3919 6.79504C21.6 5.48441 23.3607 5.16941 23.9794 6.34504L30.4369 18.4275L15.3844 45.2925V45.2925ZM58.1007 54.6469L52.3688 19.1869C52.1944 18.0844 50.8163 17.6344 50.0232 18.4275L13.8994 54.6469L33.8907 65.8688C34.5093 66.2092 35.2039 66.3877 35.91 66.3877C36.6161 66.3877 37.3108 66.2092 37.9294 65.8688L58.1007 54.6469V54.6469ZM41.8725 23.7094L37.2432 14.9063C36.7257 13.905 35.3082 13.905 34.7907 14.9063L14.4563 51.1594L41.8725 23.7094V23.7094Z" fill="#F58220"/>
</svg>
