<svg width="72" height="72" viewBox="0 0 72 72" fill="none" xmlns="http://www.w3.org/2000/svg">
<path d="M70.1673 32.8376L39.164 1.83598C37.3798 0.0506045 34.484 0.0506045 32.697 1.83598L26.2603 8.27435L34.4266 16.4407C36.3251 15.8 38.5008 16.2298 40.0134 17.7424C40.7342 18.4638 41.2375 19.3736 41.4656 20.3676C41.6937 21.3617 41.6374 22.3999 41.3032 23.3634L49.1737 31.235C51.0778 30.5786 53.2755 31.0027 54.7953 32.526C56.9216 34.6505 56.9216 38.0947 54.7953 40.2204C54.29 40.7259 53.6901 41.127 53.0298 41.4006C52.3695 41.6742 51.6617 41.815 50.947 41.815C50.2322 41.815 49.5245 41.6742 48.8642 41.4006C48.2039 41.127 47.6039 40.7259 47.0986 40.2204C46.3395 39.4608 45.822 38.4936 45.6113 37.4405C45.4006 36.3874 45.5061 35.2956 45.9146 34.3024L38.5751 26.9623L38.574 46.2791C39.1065 46.5413 39.5927 46.8886 40.0134 47.3074C42.1391 49.4319 42.1391 52.875 40.0134 55.004C37.8877 57.1286 34.4424 57.1286 32.319 55.004C30.1938 52.8755 30.0195 49.4325 32.144 47.3074C32.6694 46.7825 33.1875 46.386 33.75 46.1205V26.6248C33.1875 26.3593 32.67 25.9655 32.1435 25.4374C30.5341 23.8286 30.2332 21.4661 31.059 19.4884L23.0529 11.4373L1.81626 32.6942C0.0303257 34.4812 0.0415757 37.377 1.82751 39.1629L32.8359 70.1645C34.6207 71.9499 37.5187 71.9499 39.3063 70.1645L70.1651 39.3069C71.951 37.5204 71.9527 34.623 70.1673 32.8376Z" fill="#F34F29"/>
</svg>
