<svg width="29" height="29" viewBox="0 0 29 29" fill="none" xmlns="http://www.w3.org/2000/svg">
<rect width="29" height="29" rx="14.5" fill="#FFEFC9"/>
<path d="M16.9516 13.8636C17.6699 13.4604 18.2651 12.8878 18.6789 12.2017C19.0928 11.5157 19.3111 10.7398 19.3125 9.95V9.3H20V8H9V9.3H9.6875V9.95C9.68889 10.7398 9.9072 11.5157 10.3211 12.2017C10.7349 12.8878 11.3301 13.4604 12.0484 13.8636C12.2918 13.9988 12.4375 14.2179 12.4375 14.4486V14.5514C12.4375 14.7815 12.2918 14.9998 12.0484 15.1363C11.3301 15.5396 10.7349 16.1122 10.3211 16.7983C9.9072 17.4843 9.68889 18.2602 9.6875 19.05V19.7H9V21H20V19.7H19.3125V19.05C19.3112 18.2604 19.093 17.4846 18.6793 16.7987C18.2655 16.1127 17.6704 15.5401 16.9523 15.137C16.7083 15.0005 16.5625 14.7815 16.5625 14.5514V14.4486C16.5625 14.2179 16.7082 13.9988 16.9516 13.8636ZM16.2538 16.2563C16.7663 16.5443 17.1908 16.9532 17.486 17.4429C17.7811 17.9326 17.9367 18.4864 17.9375 19.05V19.7H11.0625V19.05C11.0634 18.4862 11.2191 17.9323 11.5143 17.4425C11.8096 16.9527 12.2343 16.5437 12.7469 16.2556C13.4144 15.8832 13.8125 15.2456 13.8125 14.5514V14.4486C13.8125 13.7538 13.4138 13.1155 12.7462 12.7437C12.2337 12.4557 11.8092 12.0468 11.514 11.5571C11.2189 11.0674 11.0633 10.5136 11.0625 9.95V9.3H17.9375V9.95C17.9375 11.094 17.2926 12.1639 16.2538 12.7437C15.5862 13.1155 15.1875 13.7538 15.1875 14.4486V14.5514C15.1875 15.2456 15.5856 15.8832 16.2538 16.2563Z" fill="#FFC947"/>
</svg>
