<svg width="84" height="84" viewBox="0 0 84 84" fill="none" xmlns="http://www.w3.org/2000/svg">
<circle cx="42" cy="42" r="42" fill="#E5E9F2"/>
<path d="M42 25C40.2419 25 38.5234 25.5213 37.0616 26.498C35.5998 27.4748 34.4605 28.863 33.7877 30.4873C33.115 32.1115 32.9389 33.8987 33.2819 35.623C33.6249 37.3473 34.4715 38.9311 35.7146 40.1743C36.9577 41.4174 38.5416 42.264 40.2659 42.607C41.9901 42.95 43.7774 42.7739 45.4016 42.1012C47.0259 41.4284 48.4141 40.2891 49.3908 38.8273C50.3676 37.3655 50.8889 35.6469 50.8889 33.8889C50.8889 31.5314 49.9524 29.2705 48.2854 27.6035C46.6184 25.9365 44.3575 25 42 25ZM42 39.2222C40.9452 39.2222 39.914 38.9094 39.037 38.3234C38.1599 37.7374 37.4763 36.9044 37.0726 35.9299C36.669 34.9553 36.5634 33.883 36.7691 32.8484C36.9749 31.8138 37.4829 30.8635 38.2288 30.1177C38.9746 29.3718 39.925 28.8638 40.9595 28.658C41.9941 28.4522 43.0664 28.5579 44.041 28.9615C45.0155 29.3652 45.8485 30.0488 46.4345 30.9258C47.0205 31.8029 47.3333 32.8341 47.3333 33.8889C47.3333 35.3034 46.7714 36.6599 45.7712 37.6601C44.771 38.6603 43.4145 39.2222 42 39.2222ZM58 58.7778V57C58 53.6995 56.6889 50.5342 54.3551 48.2004C52.0213 45.8667 48.856 44.5556 45.5556 44.5556H38.4444C35.144 44.5556 31.9787 45.8667 29.6449 48.2004C27.3111 50.5342 26 53.6995 26 57V58.7778H29.5556V57C29.5556 54.6425 30.4921 52.3816 32.1591 50.7146C33.826 49.0476 36.087 48.1111 38.4444 48.1111H45.5556C47.913 48.1111 50.174 49.0476 51.8409 50.7146C53.5079 52.3816 54.4444 54.6425 54.4444 57V58.7778H58Z" fill="#34364A"/>
</svg>
