<svg width="72" height="72" viewBox="0 0 72 72" fill="none" xmlns="http://www.w3.org/2000/svg">
<g clip-path="url(#clip0_389_125)">
<path fill-rule="evenodd" clip-rule="evenodd" d="M30.3279 2C24.6783 2 20.0984 6.43451 20.0984 11.9048V18.7619H37.8033V20.6667H12.2295C6.5799 20.6667 2 25.1012 2 30.5714L2 45.4285C2 50.8988 6.57991 55.3333 12.2295 55.3333H18.1311V46.9524C18.1311 41.4821 22.711 37.0476 28.3606 37.0476H47.2459C52.0263 37.0476 55.9016 33.2953 55.9016 28.6667V11.9048C55.9016 6.43451 51.3217 2 45.6721 2H30.3279ZM27.9672 14.1905C29.9228 14.1905 31.5082 12.6554 31.5082 10.7619C31.5082 8.86835 29.9228 7.33333 27.9672 7.33333C26.0116 7.33333 24.4262 8.86835 24.4262 10.7619C24.4262 12.6554 26.0116 14.1905 27.9672 14.1905Z" fill="url(#paint0_linear_389_125)"/>
<path fill-rule="evenodd" clip-rule="evenodd" d="M45.6724 74.0001C51.322 74.0001 55.9019 69.5655 55.9019 64.0953V57.2382L38.197 57.2382L38.197 55.3334L63.7707 55.3334C69.4203 55.3334 74.0002 50.8989 74.0002 45.4286V30.5715C74.0002 25.1013 69.4203 20.6667 63.7707 20.6667L57.8691 20.6667V29.0477C57.8691 34.5179 53.2892 38.9525 47.6396 38.9525L28.7544 38.9524C23.9739 38.9524 20.0986 42.7047 20.0986 47.3334L20.0986 64.0953C20.0986 69.5655 24.6785 74.0001 30.3281 74.0001H45.6724ZM48.033 61.8096C46.0774 61.8096 44.4921 63.3446 44.4921 65.2382C44.4921 67.1317 46.0774 68.6667 48.033 68.6667C49.9887 68.6667 51.574 67.1317 51.574 65.2382C51.574 63.3446 49.9887 61.8096 48.033 61.8096Z" fill="url(#paint1_linear_389_125)"/>
</g>
<defs>
<linearGradient id="paint0_linear_389_125" x1="28.9508" y1="2" x2="28.9508" y2="55.3333" gradientUnits="userSpaceOnUse">
<stop stop-color="#327EBD"/>
<stop offset="1" stop-color="#1565A7"/>
</linearGradient>
<linearGradient id="paint1_linear_389_125" x1="47.0494" y1="20.6667" x2="47.0494" y2="74.0001" gradientUnits="userSpaceOnUse">
<stop stop-color="#FFDA4B"/>
<stop offset="1" stop-color="#F9C600"/>
</linearGradient>
<clipPath id="clip0_389_125">
<rect width="72" height="72" fill="white"/>
</clipPath>
</defs>
</svg>
