<svg width="84" height="84" viewBox="0 0 84 84" fill="none" xmlns="http://www.w3.org/2000/svg">
<circle cx="42" cy="42" r="42" fill="#E5E9F2"/>
<path d="M42.5 54C43.5524 54 44.4055 53.1469 44.4055 52.0945V48.7472C44.4055 47.7568 45.2083 46.954 46.1987 46.954V46.954C47.7347 46.954 48.5598 45.1488 47.5547 43.9873L44.0123 39.894C43.2147 38.9723 41.7852 38.9723 40.9877 39.894L37.4453 43.9873C36.4402 45.1488 37.2653 46.954 38.8013 46.954V46.954C39.7917 46.954 40.5945 47.7568 40.5945 48.7472V52.0945C40.5945 53.1469 41.4476 54 42.5 54V54Z" fill="#34364A"/>
<path d="M33.2012 54H35.135C36.1212 54 36.9207 53.2005 36.9207 52.2143V52.2143C36.9207 51.2281 36.1212 50.4286 35.135 50.4286H33.2012C30.1252 50.4286 27.6219 48.025 27.6219 45.0714C27.6219 42.5643 29.8518 40.15 32.5931 39.6875L32.6298 39.6813C33.2745 39.5726 33.8101 39.1243 34.0307 38.5089V38.5089C35.3381 34.8464 38.5852 32.5714 42.5 32.5714C47.6273 32.5714 51.7988 36.5768 51.7988 41.5V41.5C51.7988 42.4862 52.5983 43.2857 53.5845 43.2857H53.6585C55.7098 43.2857 57.378 44.8875 57.378 46.8571C57.378 48.8268 55.7098 50.4286 53.6585 50.4286H49.865C48.8788 50.4286 48.0793 51.2281 48.0793 52.2143V52.2143C48.0793 53.2005 48.8788 54 49.865 54H53.6585C57.7612 54 61.0976 50.7964 61.0976 46.8571C61.0947 45.2564 60.5334 43.7028 59.5032 42.4443C58.7604 41.537 57.8048 40.8208 56.7225 40.349C55.9608 40.017 55.3577 39.3644 55.1547 38.5586C53.7745 33.0808 48.6251 29 42.5 29C37.696 29 33.4835 31.5272 31.3002 35.5774C31.0206 36.096 30.5581 36.4937 30.0097 36.709C26.4633 38.1011 23.9024 41.4701 23.9024 45.0714C23.9024 49.9946 28.0739 54 33.2012 54Z" fill="#34364A"/>
</svg>
