<svg width="72" height="72" viewBox="0 0 72 72" fill="none" xmlns="http://www.w3.org/2000/svg">
<path fill-rule="evenodd" clip-rule="evenodd" d="M36.0529 71.001C55.3326 70.9718 70.9397 55.2887 70.9397 35.9432C70.9397 16.9122 55.4046 1.23867 36.8449 0.907356C17.3531 0.559731 1.06537 16.3761 1.0603 35.5557C1.05468 55.2876 16.5921 71.0292 36.0529 71.001ZM35.9961 2.60442C54.5062 2.59823 69.2544 17.6372 69.2488 36.5119C69.2426 54.3314 54.1035 69.2382 36.0096 69.2421C17.5759 69.246 2.75174 54.3004 2.7523 35.7126C2.75343 17.604 17.8082 2.61061 35.9961 2.60442ZM22.0258 20.1915C22.3284 21.2001 21.4813 21.5511 20.5807 21.6214C19.6329 21.6945 18.6857 21.766 17.5854 21.8498C21.2169 32.6689 24.7939 43.3277 28.4557 54.2346C28.7167 53.8077 28.8242 53.6873 28.8714 53.5467C30.8818 47.538 32.9034 41.5334 34.8626 35.5079C35.0415 34.9583 34.9526 34.2304 34.7569 33.6657C33.7202 30.6732 32.4782 27.7459 31.5692 24.7174C30.9476 22.644 30.123 21.3025 27.6722 21.5427C27.2548 21.5837 26.7452 20.6854 26.2777 20.2214C26.8431 19.8839 27.4044 19.2629 27.9748 19.2544C32.9654 19.1777 37.9569 19.1792 42.9474 19.2589C43.5201 19.2685 44.0814 19.9058 44.6467 20.2517C44.1517 20.704 43.7248 21.3824 43.146 21.5573C42.2173 21.8374 41.1874 21.7845 40.0759 21.8835L50.9597 54.261C52.6084 48.7845 54.1423 43.7558 55.6341 38.7141C56.9649 34.2135 56.1718 30.0105 53.7654 26.0466C53.0421 24.8547 52.1533 23.6982 51.7432 22.3982C51.2775 20.9194 50.8905 19.2359 51.1374 17.7525C51.5565 15.2387 53.4853 13.9905 56.0953 13.7515C41.8123 0.495607 19.3674 5.24086 11.097 19.6437C14.2807 19.4969 17.3205 19.3039 20.3625 19.2623C20.9374 19.255 21.8908 19.741 22.0258 20.1915ZM27.7166 64.0502C27.6502 64.2443 27.6463 64.4603 27.594 64.7826C33.7494 66.4892 39.7862 66.366 45.9647 64.2842L36.5259 38.4317C33.5053 47.2129 30.6084 55.6302 27.7166 64.0502ZM22.9601 62.8814L8.73955 23.872C2.32424 36.4034 7.20449 55.5227 22.9601 62.8814ZM65.9509 37.8152C66.402 31.8899 64.3579 23.6858 62.5927 22.5574C62.3959 24.7371 62.5331 27.162 61.9076 29.3715C60.4356 34.5775 58.6356 39.6929 56.9019 44.8223C55.0176 50.3978 53.0589 55.948 51.1324 61.5094C60.1841 56.1437 65.1583 48.2243 65.9509 37.8152Z" fill="#494949"/>
</svg>
