<?xml version="1.0" standalone="no"?>
<!DOCTYPE svg PUBLIC "-//W3C//DTD SVG 20010904//EN"
 "http://www.w3.org/TR/2001/REC-SVG-20010904/DTD/svg10.dtd">
<svg version="1.0" xmlns="http://www.w3.org/2000/svg"
 width="1080.000000pt" height="1080.000000pt" viewBox="0 0 1080.000000 1080.000000"
 preserveAspectRatio="xMidYMid meet">
<metadata>
Created by potrace 1.14, written by Peter Selinger 2001-2017
</metadata>
<g transform="translate(0.000000,1080.000000) scale(0.100000,-0.100000)"
fill="#000000" stroke="none">
<path d="M0 5400 l0 -5400 5400 0 5400 0 0 5400 0 5400 -5400 0 -5400 0 0
-5400z m4121 2184 c150 -44 261 -157 320 -324 l23 -65 -3 -1500 c-1 -825 -5
-1516 -7 -1535 -26 -168 -147 -361 -289 -459 -91 -63 -176 -96 -280 -109 -209
-25 -381 55 -480 223 -73 123 -69 75 -75 930 l-5 770 -325 -380 c-179 -209
-542 -634 -808 -945 -266 -311 -506 -585 -535 -608 -69 -58 -174 -108 -270
-129 -245 -53 -478 95 -552 349 -21 74 -21 241 0 323 23 90 89 214 158 296 59
69 247 289 1110 1298 209 243 377 445 374 447 -5 5 -376 -42 -632 -81 -319
-48 -611 -85 -675 -85 -179 0 -335 102 -415 272 -85 180 -68 438 42 628 49 85
181 216 258 257 88 46 143 59 425 98 140 20 444 62 675 95 231 32 600 84 820
115 220 31 519 73 665 94 296 43 400 49 481 25z m5293 -130 c3 -9 6 -164 6
-345 0 -181 1 -329 3 -329 2 0 86 12 187 26 228 31 215 39 206 -125 -3 -63 -9
-118 -14 -123 -12 -12 -548 -89 -637 -91 l-70 -2 -3 465 c-2 363 1 470 10 482
9 12 51 23 138 37 158 24 167 24 174 5z m-456 -175 c2 -88 -1 -119 -11 -127
-10 -9 -370 -72 -409 -72 -14 0 -9 -80 5 -86 7 -2 91 7 186 21 131 19 177 22
187 14 21 -17 20 -212 -1 -229 -8 -7 -97 -25 -197 -41 -101 -15 -184 -28 -185
-29 -7 -1 -2 -79 5 -84 4 -3 98 8 208 24 184 27 200 28 212 13 15 -20 17 -205
2 -233 -12 -22 -34 -26 -430 -80 -264 -36 -286 -37 -298 -22 -11 13 -13 41 -8
121 3 57 6 267 6 467 0 357 0 363 20 369 44 14 617 94 660 92 l45 -2 3 -116z
m-833 1 c6 -9 -17 -99 -144 -575 -27 -99 -61 -228 -76 -287 -15 -59 -36 -116
-45 -126 -14 -15 -53 -24 -182 -41 -90 -12 -171 -19 -181 -15 -10 3 -23 28
-32 58 -8 28 -31 107 -51 176 -20 69 -51 179 -69 245 -18 66 -51 185 -74 264
-23 79 -41 153 -39 165 3 19 15 23 141 41 100 14 143 16 155 9 12 -8 36 -87
81 -268 35 -142 66 -254 70 -249 4 4 15 42 24 83 49 228 109 467 121 479 8 7
69 21 137 31 153 22 156 22 164 10z m-987 -256 c2 -91 -1 -124 -11 -132 -7 -6
-102 -23 -210 -38 l-197 -28 0 -48 0 -49 33 6 c115 19 300 45 326 45 l31 0 0
-114 c0 -84 -4 -117 -14 -125 -10 -8 -322 -60 -368 -61 -5 0 -8 -20 -8 -45 0
-55 -16 -53 220 -19 99 15 186 24 195 20 12 -4 15 -27 15 -124 0 -84 -4 -123
-12 -130 -14 -11 -601 -94 -678 -96 l-45 -1 -2 470 c-2 259 1 476 6 484 6 9
111 29 337 62 181 26 340 47 354 46 l25 -2 3 -121z m-1230 -56 c9 -9 12 -99
12 -345 0 -281 2 -333 14 -333 8 0 92 11 187 25 125 19 175 23 183 15 7 -7 10
-56 9 -133 -2 -97 -5 -124 -17 -133 -9 -6 -78 -19 -154 -29 -75 -10 -225 -30
-332 -46 -181 -25 -196 -26 -208 -11 -11 14 -13 102 -10 480 3 266 8 466 14
472 7 7 157 33 280 49 5 0 15 -4 22 -11z m3208 -961 c99 -33 207 -106 258
-175 75 -103 112 -213 122 -362 16 -230 -53 -448 -189 -596 -158 -172 -362
-260 -727 -312 l-125 -18 -5 -311 c-5 -286 -6 -313 -24 -332 -10 -11 -26 -23
-35 -25 -9 -3 -150 -24 -315 -46 -275 -37 -300 -39 -322 -25 l-24 15 0 1015 0
1015 28 29 c27 29 28 30 422 85 217 31 424 60 460 65 36 5 139 8 230 7 147 -3
174 -6 246 -29z m-1732 -183 c9 -8 18 -25 21 -37 3 -12 1 -341 -3 -732 -9
-681 -10 -713 -31 -790 -43 -159 -123 -296 -237 -406 -86 -82 -143 -121 -248
-169 -272 -126 -643 -161 -886 -84 -182 57 -317 199 -379 397 l-26 82 -3 727
c-2 507 0 734 8 748 24 45 27 46 597 125 37 5 46 3 69 -20 l26 -27 -3 -661 -4
-662 25 -50 c34 -68 73 -88 163 -82 133 9 206 75 227 207 6 40 10 310 10 693
l0 629 28 27 c25 25 40 29 202 51 96 13 211 29 255 35 116 18 171 18 189 -1z"/>
<path d="M8565 5459 c-33 -5 -75 -11 -92 -14 l-33 -6 0 -169 c0 -94 3 -170 8
-170 61 2 221 34 247 50 70 43 96 167 56 257 -30 64 -53 71 -186 52z"/>
</g>
</svg>
