<svg xmlns="http://www.w3.org/2000/svg" viewBox="0 0 120.6 120.6"><defs><style>.cls-1{fill:#e8efff;}.cls-2{fill:#ffc947;}.cls-3{fill:#1857ca;}.cls-4{fill:#94a8d4;}</style></defs><g id="Layer_2" data-name="Layer 2"><g id="Objects"><path class="cls-1" d="M120.6,60.3A60.3,60.3,0,1,1,60.3,0,60.3,60.3,0,0,1,120.6,60.3Z"/><rect class="cls-2" x="56.77" y="63.02" width="10.45" height="10.33"/><path class="cls-3" d="M51.23,43.77l7.23,11.5c1.52,2.42,2.72,2.06,2.66-.8l-.24-12.72a3.25,3.25,0,0,1,1-6.32,3.25,3.25,0,0,1,1.25,6.28l.24,12.74c0,2.86,1.26,3.18,2.71.71L73,43.41a6,6,0,0,0,.55-4.11L69.58,27.63l1.57,0a1.88,1.88,0,1,0-.07-3.76l-2.26,0L69.74,13A4.59,4.59,0,0,0,65,7.9L58.07,8a4.68,4.68,0,0,0-4.65,5.25l1.12,10.87-2.26,0A1.88,1.88,0,0,0,52.35,28l1.29,0L50.42,39.71A5.85,5.85,0,0,0,51.23,43.77Z"/><path class="cls-4" d="M101.58,65.38V56.87H93.06v3H34.92v-3H26.4v8.51h8.52v-3H55.5v4.26C51,68.31,31.59,76.51,29.62,96.49h-1.1v4.3h4.29v-4.3h-.55c1.88-17.27,18-25,23.25-27v4.73H68.67V69.59c5.59,2.25,21,10,22.89,26.9h-.63v4.3h4.3v-4.3h-1C92.27,77,73.75,68.72,68.67,66.81V62.42h24.4v3ZM66.08,71.6h-8v-8h8Z"/></g></g></svg>