<svg xmlns="http://www.w3.org/2000/svg" viewBox="0 0 120.6 120.6"><defs><style>.cls-1{fill:#e8efff;}.cls-2{fill:#1857ca;}.cls-3{fill:#1c50a3;}.cls-4{fill:none;stroke:#94a8d4;stroke-miterlimit:10;stroke-width:1.52px;}.cls-5{fill:#94a8d4;}</style></defs><g id="Layer_2" data-name="Layer 2"><g id="Objects"><path class="cls-1" d="M120.6,60.3A60.3,60.3,0,1,1,60.3,0,60.3,60.3,0,0,1,120.6,60.3Z"/><polygon class="cls-2" points="60.71 33.58 30.79 47.46 60.71 61.35 90.64 47.46 60.71 33.58"/><polygon class="cls-3" points="60.71 60.96 30.79 47.46 30.79 86.91 60.71 100.41 90.64 86.91 90.64 47.46 60.71 60.96"/><line class="cls-4" x1="60.4" y1="101.01" x2="60.4" y2="21.24"/><polygon class="cls-5" points="66.62 26.28 65.51 27.32 60.4 21.83 55.3 27.32 54.19 26.28 60.4 19.59 66.62 26.28"/><line class="cls-4" x1="60.4" y1="101.01" x2="99.23" y2="82.55"/><polygon class="cls-5" points="97.35 90.33 95.93 89.77 98.7 82.8 91.55 80.55 92.01 79.1 100.72 81.84 97.35 90.33"/><line class="cls-4" x1="61.02" y1="101.01" x2="21.37" y2="81.63"/><polygon class="cls-5" points="28.62 78.26 29.06 79.71 21.89 81.89 24.58 88.88 23.16 89.43 19.89 80.91 28.62 78.26"/></g></g></svg>