<svg xmlns="http://www.w3.org/2000/svg" xmlns:xlink="http://www.w3.org/1999/xlink" viewBox="0 0 120.6 129.63"><defs><style>.cls-1{fill:none;}.cls-2{fill:#e8efff;}.cls-3{fill:#ffc947;}.cls-4{fill:#fcfcfc;}.cls-5{fill:#dfdfdf;}.cls-6{fill:#f3f3f3;}.cls-7{fill:#1b52b0;}.cls-8{fill:#1759d7;}.cls-9{clip-path:url(#clip-path);}</style><clipPath id="clip-path"><path class="cls-1" d="M120.6,60.3A60.3,60.3,0,1,1,60.3,0,60.3,60.3,0,0,1,120.6,60.3Z"/></clipPath></defs><g id="Layer_2" data-name="Layer 2"><g id="Objects"><path class="cls-2" d="M120.6,60.3A60.3,60.3,0,1,1,60.3,0,60.3,60.3,0,0,1,120.6,60.3Z"/><path class="cls-3" d="M53.28,81.6A26.68,26.68,0,0,1,37,91.57a25.35,25.35,0,0,0-2.61.43H30c-.3-.15-.71,0-.91-.41a1,1,0,0,1,.4-.92L40.27,79.84a2.31,2.31,0,0,1,.56-.38.37.37,0,0,1,.18,0c1.26.65,1.79.57,2.79-.41s2-2,3.05-3c.2-.2.37-.46.72-.4a2.26,2.26,0,0,1,.65.46c1.58,1.59,3.17,3.16,4.74,4.76C53.16,81,53.48,81.21,53.28,81.6Z"/><path class="cls-3" d="M40.87,79.6c-.19.21-.37.44-.57.64L29.76,90.78a1.61,1.61,0,0,0-.55.73c-.29.11-.38-.08-.45-.31a2.26,2.26,0,0,0-.17-.56V86.42c.19-1.13.34-2.28.58-3.4a26.42,26.42,0,0,1,9.36-15.3l.47-.4c.36-.29.58,0,.79.2.76.73,1.5,1.48,2.24,2.23s1.64,1.63,2.45,2.45A1.74,1.74,0,0,1,45,73c.06.35-.22.52-.41.71-1,1-2.07,2.08-3.1,3.11a1.86,1.86,0,0,0-.6,2.22A.61.61,0,0,1,40.87,79.6Z"/><path class="cls-4" d="M28.59,90.64c.25.26.31.65.62.87s.51.31.75.49c-.46,0-1.09.18-1.32,0S28.59,91.09,28.59,90.64Z"/><path class="cls-5" d="M53.28,81.6A31.4,31.4,0,0,0,51,79.26c-1.15-1.18-2.31-2.34-3.47-3.51-.17-.28,0-.46.2-.64.48-.51,1-1,1.48-1.49l9.44-9.44c1.08-1.09,1.15-1.48.52-2.9a.37.37,0,0,1,0-.18A8.57,8.57,0,0,1,62,58.48l.18,0a18.37,18.37,0,0,0,2.58,1.58,7.74,7.74,0,0,0,10.61-5.94A7.56,7.56,0,0,0,74,48.33c-.25-.33-.52-.65-.74-1a.4.4,0,0,1,0-.19,12.56,12.56,0,0,1,2.42-2.57.55.55,0,0,1,.36-.1.57.57,0,0,1,.18,0,1.83,1.83,0,0,1,.63.38,18.5,18.5,0,0,0,10.53,4.87,18.3,18.3,0,0,0,2,.18.91.91,0,0,1,.79.27,42.56,42.56,0,0,1-4.13,8.57,37.4,37.4,0,0,1-4.23,5.48,1.73,1.73,0,0,0-.55.73,5.24,5.24,0,0,1-1.62,2,83.13,83.13,0,0,1-6.9,5.81,74.39,74.39,0,0,1-9.21,5.77c-.34.18-.67.43-1.1.22-2.07,1-4.14,1.92-6.27,2.77A3.08,3.08,0,0,1,53.28,81.6Z"/><path class="cls-6" d="M76,44.64a26.41,26.41,0,0,0-2.1,2l-.55.49c-.28.18-.46,0-.66-.17a8.19,8.19,0,0,0-5.4-1.77A7.71,7.71,0,0,0,61.7,57.81a.94.94,0,0,1,.26.84c-.77.6-1.39,1.36-2.09,2-.18.17-.38.32-.57.48a.67.67,0,0,1-.54,0,2.05,2.05,0,0,0-2.27.67q-5.34,5.37-10.71,10.71a3.27,3.27,0,0,1-.55.5.33.33,0,0,1-.4,0c-1-1.12-2.07-2.11-3.1-3.17-.7-.72-1.42-1.42-2.14-2.13a1.21,1.21,0,0,0-.59-.43,3,3,0,0,1,.08-2.77c.82-1.92,1.59-3.84,2.55-5.69.09-.19.15-.38.23-.58A1.06,1.06,0,0,1,42,57.4a66,66,0,0,1,4.68-7.78,76.68,76.68,0,0,1,5.69-7.16c.76-.86,1.65-1.61,2.38-2.51a1.78,1.78,0,0,1,.94-.49c1.23-1.12,2.49-2.22,3.83-3.22a41.81,41.81,0,0,1,10.87-5.7,3.12,3.12,0,0,1,.36,1.84,18.8,18.8,0,0,0,4.87,11.36C75.87,44,76.19,44.21,76,44.64Z"/><path class="cls-7" d="M55.71,39.46A73.14,73.14,0,0,0,47,49.75a70.58,70.58,0,0,0-4.71,7.78c-.13.26-.28.5-.42.75l-8.92-4.45a1.89,1.89,0,0,1-.55-3.31,61,61,0,0,1,6.08-5.73,26.73,26.73,0,0,1,14.92-5.37,9.72,9.72,0,0,1,2.35,0Z"/><path class="cls-8" d="M62.32,78.74A71.86,71.86,0,0,0,75,70.55c2-1.61,3.88-3.33,5.69-5.13.16-.16.28-.36.51-.44a26.41,26.41,0,0,1-7.79,19.94c-1.08,1.11-2.18,2.2-3.28,3.29a1.89,1.89,0,0,1-3.31-.55Q64.54,83.21,62.32,78.74Z"/><path class="cls-8" d="M90.06,50.2a19.16,19.16,0,0,1-11.53-3.49,14.74,14.74,0,0,1-2.45-2.08.54.54,0,0,1,.13-.71,3.2,3.2,0,0,1,.25-.27L89.89,30.23c.28-.28.52-.77,1.07-.47a2.26,2.26,0,0,1,.59,1.52A39.33,39.33,0,0,1,90.11,50,.93.93,0,0,0,90.06,50.2Z"/><path class="cls-7" d="M91,29.76a1.56,1.56,0,0,0-.69.5L76.54,44a1.33,1.33,0,0,0-.46.63H76c-.49-.59-1-1.15-1.47-1.75A19.5,19.5,0,0,1,70.37,31c0-.14,0-.28,0-.43A48.58,48.58,0,0,1,77,29a39.12,39.12,0,0,1,12.82.18A1.73,1.73,0,0,1,91,29.76Z"/><path class="cls-6" d="M55.74,39.46l-2.35,0A4.79,4.79,0,0,1,55.74,39.46Z"/><path class="cls-8" d="M59.33,61.26a1.77,1.77,0,0,1,.14,2.5c-.15.18-.31.33-.47.5q-5.46,5.44-10.91,10.91c-.19.18-.36.39-.55.58C46.27,77,45,78.29,43.71,79.54a1.79,1.79,0,0,1-2.73.07.56.56,0,0,1,.16-.62c.12-.14.25-.27.38-.4L58.32,61.8C58.59,61.53,58.81,61.09,59.33,61.26Z"/><path class="cls-7" d="M59.33,61.26c-.18.17-.37.32-.55.5l-17.3,17.3c-.17.17-.33.36-.5.55h-.11a2,2,0,0,1,.37-2.9l3.59-3.65c.2-.17.41-.34.6-.52l11-11a2,2,0,0,1,2.87-.37S59.32,61.22,59.33,61.26Z"/><path class="cls-8" d="M73.35,47.23a7.43,7.43,0,0,1,2.4,5.7A8.06,8.06,0,0,1,67.49,61a7.69,7.69,0,0,1-5.43-2.33.47.47,0,0,1,.08-.66c.62-.66,1.26-1.3,1.91-1.92a.8.8,0,0,1,.63-.2,2.19,2.19,0,0,1,.81.43,4,4,0,0,0,5.62-5.52,2.77,2.77,0,0,1-.41-.89,1,1,0,0,1,.3-.66c.58-.59,1.16-1.17,1.75-1.74A.78.78,0,0,1,73.35,47.23Z"/><path class="cls-7" d="M64.66,56.06a11.07,11.07,0,0,0-2.6,2.6H62a9.13,9.13,0,0,1-2.14-4A8.05,8.05,0,0,1,73,46.86l.34.27s0,.07,0,.1c-.62.78-1.38,1.41-2.06,2.13l-.44.52a.34.34,0,0,1-.17,0A2,2,0,0,1,70,49.6a4,4,0,0,0-6.3,3.13,3.78,3.78,0,0,0,.62,2.3,2.6,2.6,0,0,1,.46.87A.25.25,0,0,1,64.66,56.06Z"/><path class="cls-3" d="M64.66,56.06V56a.9.9,0,0,1,.33-.7c1.69-1.68,3.37-3.37,5.07-5a.76.76,0,0,1,.68-.34l.12,0A4.38,4.38,0,0,1,70,56.62,4.33,4.33,0,0,1,64.66,56.06Z"/><path class="cls-3" d="M70.73,49.86Q67.76,53,64.65,56a4.07,4.07,0,0,1-1-4.49,4.26,4.26,0,0,1,3.64-2.85A4.14,4.14,0,0,1,70.73,49.86Z"/><g class="cls-9"><path class="cls-8" d="M96.69,129.63c-2.56,0-3.88-1.43-5-2.69s-2.19-2.36-4.31-2.36S84.14,125.73,83,127s-2.49,2.68-5,2.68-3.88-1.43-5-2.69-2.19-2.36-4.31-2.36-3.18,1.15-4.31,2.36-2.48,2.69-5,2.69-3.88-1.43-5-2.69-2.19-2.36-4.31-2.36-3.19,1.15-4.31,2.36-2.49,2.69-5.05,2.69-3.88-1.43-5-2.69-2.19-2.36-4.31-2.36-3.19,1.15-4.32,2.36-2.49,2.69-5.05,2.69-3.88-1.43-5-2.68-2.19-2.37-4.31-2.37v-1c2.56,0,3.88,1.43,5.05,2.69s2.19,2.36,4.31,2.36,3.19-1.15,4.32-2.36,2.49-2.69,5.05-2.69,3.88,1.43,5,2.69,2.2,2.36,4.32,2.36,3.18-1.15,4.31-2.37,2.49-2.68,5-2.68S53.78,125,55,126.27s2.19,2.36,4.31,2.36,3.18-1.15,4.31-2.36,2.49-2.69,5-2.69,3.88,1.43,5,2.68,2.19,2.37,4.31,2.37,3.19-1.15,4.31-2.36,2.49-2.69,5-2.69,3.88,1.43,5,2.68,2.19,2.37,4.31,2.37Zm0-9.52c-2.12,0-3.19-1.15-4.31-2.36s-2.49-2.69-5-2.69-3.88,1.43-5,2.69-2.19,2.36-4.31,2.36-3.18-1.15-4.31-2.36-2.49-2.69-5-2.69-3.88,1.43-5,2.69-2.19,2.36-4.31,2.36S56.07,119,55,117.75s-2.49-2.69-5.05-2.69-3.88,1.43-5,2.69-2.19,2.36-4.31,2.36-3.19-1.15-4.32-2.36-2.48-2.69-5-2.69-3.89,1.43-5.05,2.69-2.2,2.36-4.32,2.36-3.19-1.15-4.31-2.36-2.49-2.69-5.05-2.69v1c2.12,0,3.18,1.15,4.31,2.37s2.49,2.68,5,2.68,3.88-1.42,5.05-2.68,2.19-2.37,4.32-2.37,3.18,1.15,4.31,2.37,2.49,2.68,5,2.68,3.88-1.42,5.05-2.68,2.19-2.37,4.31-2.37,3.18,1.15,4.31,2.37,2.49,2.68,5,2.68,3.88-1.42,5-2.68,2.19-2.37,4.31-2.37,3.19,1.15,4.31,2.37,2.49,2.68,5,2.68,3.88-1.42,5-2.68,2.19-2.37,4.31-2.37,3.18,1.15,4.31,2.37,2.49,2.68,5,2.68Zm0-8.51c-2.12,0-3.19-1.15-4.31-2.37s-2.49-2.69-5-2.69-3.88,1.43-5,2.69S80.09,111.6,78,111.6s-3.18-1.15-4.31-2.37-2.49-2.69-5-2.69-3.88,1.43-5,2.69-2.19,2.37-4.31,2.37-3.19-1.15-4.31-2.37-2.49-2.69-5.05-2.69-3.88,1.43-5,2.69-2.19,2.37-4.31,2.37-3.19-1.15-4.32-2.37-2.48-2.69-5-2.69-3.89,1.43-5.05,2.69-2.2,2.37-4.32,2.37-3.19-1.15-4.31-2.37-2.49-2.69-5.05-2.69v1c2.12,0,3.18,1.15,4.31,2.37s2.49,2.69,5,2.69,3.88-1.43,5.05-2.69,2.19-2.37,4.32-2.37,3.18,1.15,4.31,2.37,2.49,2.69,5,2.69,3.88-1.43,5.05-2.69,2.19-2.37,4.31-2.37,3.18,1.15,4.31,2.37,2.49,2.69,5,2.69,3.88-1.43,5-2.69,2.19-2.37,4.31-2.37,3.19,1.15,4.31,2.37,2.49,2.69,5,2.69,3.88-1.43,5-2.69,2.19-2.37,4.31-2.37,3.18,1.15,4.31,2.37,2.49,2.69,5,2.69Z"/></g></g></g></svg>