<svg width="90" height="90" viewBox="0 0 90 90" fill="none" xmlns="http://www.w3.org/2000/svg">
<g id="Asset 5 1" clip-path="url(#clip0_12_344)">
<g id="Layer 2">
<g id="Objects">
<path id="Vector" d="M90 44.9999C90 45.5148 90 46.0298 90 46.5447C90 46.9402 90 47.3283 89.9403 47.7163C89.9403 47.9402 89.9403 48.1566 89.9403 48.373C89.903 48.8357 89.8657 49.291 89.8209 49.7387C89.7239 50.6417 89.6045 51.5298 89.4552 52.4178C89.4552 52.5298 89.4552 52.6342 89.3955 52.7387C89.3209 53.1815 89.2388 53.6143 89.1492 54.0372C89.1535 54.0644 89.1535 54.0921 89.1492 54.1193C89.0597 54.5596 88.9627 54.9999 88.8582 55.4327C88.7537 55.8656 88.6866 56.1342 88.597 56.4775C88.5075 56.8208 88.4552 57.0148 88.3731 57.2835C88.1119 58.2014 87.8209 59.1119 87.5075 60.0074C87.3731 60.3855 87.2313 60.7661 87.0821 61.1492V61.2089C86.9254 61.6193 86.7537 62.0298 86.5821 62.4402L86.4104 62.8357C86.2761 63.1492 86.1418 63.4626 85.9925 63.776C85.9925 63.8656 85.9104 63.9477 85.8731 64.0372C85.6866 64.4327 85.5 64.8208 85.2985 65.2089C84.8657 66.082 84.403 66.9327 83.903 67.7686C83.4552 68.5148 82.9776 69.2611 82.4851 70.0074C81.3029 71.7658 79.9987 73.4391 78.5821 75.0148L77.9179 75.7611C77.5373 76.1641 77.1716 76.5671 76.7537 76.9551C76.4776 77.2238 76.2015 77.4924 75.9179 77.7536C75.6343 78.0148 75.3134 78.3208 75 78.5969L74.9552 78.6417L74.0224 79.4402L73.403 79.9551L72.888 80.3656C71.7148 81.2915 70.4943 82.1559 69.2313 82.9551L68.5821 83.3581C66.9433 84.3635 65.2407 85.261 63.4851 86.0447C63.2686 86.1492 63.0522 86.2387 62.8358 86.3357L61.9478 86.7014L60.9552 87.0895C59.6269 87.587 58.2637 88.0248 56.8657 88.4029C56.5373 88.4999 56.2015 88.582 55.8657 88.6641L54.8507 88.9029C54.6318 88.9526 54.4154 88.9974 54.2015 89.0372C53.903 89.1044 53.597 89.1641 53.291 89.2163C52.8582 89.2984 52.4254 89.373 51.9851 89.4402C51.1194 89.5671 50.2463 89.679 49.3657 89.7536C48.9179 89.7984 48.4701 89.8283 48.0224 89.8581C47.0672 89.9253 46.1045 89.9551 45.1343 89.9551C44.1642 89.9551 43.2015 89.9551 42.2463 89.8581C41.7985 89.8581 41.3507 89.7984 40.903 89.7536C40.0149 89.679 39.1343 89.5671 38.2612 89.4327C37.8209 89.3656 37.3881 89.291 36.9552 89.2089C36.5224 89.1268 35.9552 89.0223 35.4627 88.9104L34.3806 88.6566C33.9552 88.5521 33.5373 88.4477 33.1194 88.3283L31.8657 87.9626L30.7015 87.5895C30.194 87.4178 29.6866 87.2387 29.2089 87.0447L28.2537 86.6715C27.791 86.4875 27.3358 86.2934 26.8881 86.0895L25.8806 85.6268C25.4925 85.4477 25.1343 85.2536 24.7313 85.0596C24.3284 84.8656 23.9851 84.6716 23.597 84.4626C23.2089 84.2536 22.8507 84.0521 22.4851 83.8357C16.5239 80.4127 11.4263 75.6694 7.58321 69.97C3.74017 64.2705 1.25392 57.7664 0.315277 50.9567C-0.62337 44.1471 0.0105281 37.2129 2.16833 30.6863C4.32613 24.1597 7.95047 18.2142 12.7632 13.306C17.576 8.39787 23.4492 4.65754 29.9322 2.37205C36.4152 0.0865696 43.3356 -0.683307 50.1624 0.121505C56.9891 0.926316 63.5408 3.28442 69.3146 7.01486C75.0883 10.7453 79.9307 15.7489 83.4701 21.6417C83.7388 22.0895 84.0075 22.5447 84.2612 23.0074C84.5149 23.4701 84.7239 23.8357 84.9328 24.2536C85.1418 24.6716 85.3731 25.1044 85.5746 25.5372C85.6866 25.7611 85.7985 25.9924 85.8955 26.2238C86.0895 26.6342 86.2686 27.0447 86.4477 27.4626C86.6269 27.8805 86.8209 28.373 87 28.8357C87.1791 29.2984 87.3806 29.8507 87.5522 30.3283C87.9104 31.3507 88.2239 32.3954 88.5 33.4551C88.7164 34.2536 88.903 35.0596 89.0672 35.873C89.0672 36.0521 89.1418 36.2387 89.1716 36.4253C89.2537 36.8283 89.3283 37.2387 89.3955 37.6492C89.5522 38.5969 89.6791 39.5596 89.7686 40.5298C89.8134 40.9253 89.8433 41.3283 89.8657 41.7313C89.8657 41.9178 89.8657 42.1044 89.8657 42.291C89.8657 42.4775 89.8657 42.7835 89.903 43.0372C89.9403 43.291 89.903 43.4626 89.903 43.6716C89.9677 44.1293 90 44.572 90 44.9999Z" fill="#E8EFFF"/>
<path id="Vector_2" d="M88.5149 33.5147H22.3358V24.0073C22.3358 23.3799 22.5851 22.7781 23.0287 22.3345C23.4724 21.8908 24.0741 21.6416 24.7015 21.6416H83.4701C85.7186 25.3338 87.418 29.3333 88.5149 33.5147Z" fill="#1857CA"/>
<path id="Vector_3" d="M90 44.9997C90 45.5146 90 46.0296 90 46.5445C90 46.94 90 47.3281 89.9403 47.7161C89.9403 47.94 89.9403 48.1564 89.9403 48.3729C89.903 48.8355 89.8657 49.2908 89.8209 49.7385C89.7239 50.6415 89.597 51.537 89.4552 52.4176C89.4552 52.5296 89.4552 52.6341 89.3955 52.7385C89.3209 53.1813 89.2388 53.6142 89.1492 54.037C89.1534 54.0642 89.1534 54.0919 89.1492 54.1191C89.0597 54.5594 88.9627 54.9997 88.8582 55.4326C88.7537 55.8654 88.6866 56.1341 88.597 56.4773L88.3731 57.2833C88.1119 58.2012 87.8209 59.1117 87.5075 60.0072C87.3731 60.3853 87.2313 60.7659 87.0821 61.149V61.2087C86.9254 61.6191 86.7537 62.0296 86.5821 62.44L86.4104 62.8355C86.2761 63.149 86.1418 63.4624 85.9925 63.7758C85.9925 63.8654 85.9104 63.9475 85.8731 64.037C85.6866 64.4326 85.5 64.8206 85.2985 65.2087C84.8582 66.0818 84.3955 66.9326 83.903 67.7684C83.4552 68.5146 82.9776 69.2609 82.4851 70.0072C81.3029 71.7656 79.9987 73.4389 78.5821 75.0146L77.9179 75.7609C77.5373 76.1639 77.1716 76.5669 76.7537 76.955C76.4776 77.2236 76.2015 77.4923 75.9179 77.7535C75.6343 78.0147 75.3134 78.3206 75 78.5967L74.9552 78.6415L74.0224 79.44L73.403 79.9549L72.8881 80.3654C71.7148 81.2914 70.4943 82.1557 69.2313 82.9549L68.5821 83.3579C66.9433 84.3633 65.2407 85.2608 63.4851 86.0445C63.2686 86.149 63.0522 86.2385 62.8358 86.3355L61.9478 86.7012L60.9552 87.0893C59.6269 87.5868 58.2637 88.0246 56.8657 88.4027C56.5373 88.4997 56.2015 88.5818 55.8657 88.6639L54.8507 88.9027C54.6318 88.9525 54.4154 88.9972 54.2015 89.037C53.903 89.1042 53.597 89.1639 53.291 89.2161C52.8582 89.2982 52.4254 89.3729 51.9851 89.44C51.1194 89.5644 50.2463 89.6689 49.3657 89.7535C48.9179 89.7982 48.4701 89.8281 48.0224 89.8579H42.1119C41.6642 89.8579 41.2164 89.7982 40.7686 89.7535C39.8806 89.6714 39 89.5669 38.1269 89.4326C37.6866 89.3654 37.2537 89.2908 36.8209 89.2087C36.3881 89.1266 35.8209 89.0221 35.3283 88.9102L34.2463 88.6564C33.8209 88.552 33.403 88.4475 32.9851 88.3281L31.7313 87.9624L30.5672 87.5893C30.0597 87.4176 29.5522 87.2385 29.0746 87.0445L28.1194 86.6714C27.6567 86.4873 27.2015 86.2933 26.7537 86.0893L25.7463 85.6266C25.3582 85.4475 25 85.2535 24.597 85.0594C24.194 84.8654 23.8507 84.6714 23.4627 84.4624C23.0746 84.2535 22.7164 84.052 22.3507 83.8355V33.5146H88.5298C88.7388 34.3132 88.9328 35.1191 89.097 35.9326C89.097 36.1117 89.1716 36.2982 89.2015 36.4848C89.2836 36.8878 89.3582 37.2982 89.4254 37.7087C89.5821 38.6639 89.7089 39.6191 89.7985 40.5893C89.8433 40.9848 89.8731 41.3878 89.8955 41.7908C89.8955 41.9773 89.8955 42.1639 89.8955 42.3505C89.8955 42.537 89.8955 42.843 89.9328 43.0967C89.9701 43.3505 89.9328 43.5221 89.9328 43.7311C89.9776 44.149 90 44.5719 90 44.9997Z" fill="#D5DCEB"/>
<path id="Vector_4" d="M84.6642 28.9999H57.9552C57.7439 29.0146 57.5317 28.9857 57.332 28.9149C57.1322 28.8441 56.9492 28.733 56.7942 28.5885C56.6393 28.4439 56.5157 28.269 56.4312 28.0747C56.3468 27.8804 56.3032 27.6707 56.3032 27.4588C56.3032 27.2469 56.3468 27.0373 56.4312 26.843C56.5157 26.6486 56.6393 26.4738 56.7942 26.3292C56.9492 26.1847 57.1322 26.0736 57.332 26.0028C57.5317 25.932 57.7439 25.9031 57.9552 25.9178H84.6642C85.0708 25.9235 85.4593 26.0871 85.7476 26.374C86.0358 26.6608 86.2013 27.0485 86.209 27.4551C86.1827 27.8562 86.0115 28.234 85.7273 28.5182C85.4431 28.8024 85.0653 28.9736 84.6642 28.9999Z" fill="#F9CC69"/>
<path id="Vector_5" d="M31.2463 28.9999H28.2612C28.0498 29.0146 27.8376 28.9857 27.6379 28.9149C27.4382 28.8441 27.2551 28.733 27.1002 28.5885C26.9452 28.4439 26.8217 28.269 26.7372 28.0747C26.6527 27.8804 26.6091 27.6707 26.6091 27.4588C26.6091 27.2469 26.6527 27.0373 26.7372 26.843C26.8217 26.6486 26.9452 26.4738 27.1002 26.3292C27.2551 26.1847 27.4382 26.0736 27.6379 26.0028C27.8376 25.932 28.0498 25.9031 28.2612 25.9178H31.2463C31.6516 25.9254 32.0382 26.0899 32.3248 26.3765C32.6115 26.6632 32.7759 27.0498 32.7836 27.4551C32.7575 27.855 32.5873 28.2318 32.3047 28.5159C32.022 28.7999 31.646 28.9719 31.2463 28.9999Z" fill="#FFC947"/>
<path id="Vector_6" d="M44.5373 28.9999H41.5522C41.3408 29.0146 41.1287 28.9857 40.9289 28.9149C40.7292 28.8441 40.5462 28.733 40.3912 28.5885C40.2363 28.4439 40.1127 28.269 40.0282 28.0747C39.9437 27.8804 39.9001 27.6707 39.9001 27.4588C39.9001 27.2469 39.9437 27.0373 40.0282 26.843C40.1127 26.6486 40.2363 26.4738 40.3912 26.3292C40.5462 26.1847 40.7292 26.0736 40.9289 26.0028C41.1287 25.932 41.3408 25.9031 41.5522 25.9178H44.5373C44.7487 25.9031 44.9609 25.932 45.1606 26.0028C45.3603 26.0736 45.5434 26.1847 45.6983 26.3292C45.8533 26.4738 45.9768 26.6486 46.0613 26.843C46.1458 27.0373 46.1894 27.2469 46.1894 27.4588C46.1894 27.6707 46.1458 27.8804 46.0613 28.0747C45.9768 28.269 45.8533 28.4439 45.6983 28.5885C45.5434 28.733 45.3603 28.8441 45.1606 28.9149C44.9609 28.9857 44.7487 29.0146 44.5373 28.9999Z" fill="#FFC947"/>
<path id="Vector_7" d="M51.7836 40.731V56.3281C51.7916 56.8275 51.6013 57.3098 51.2544 57.6693C50.9075 58.0288 50.4323 58.2362 49.9328 58.246H28.5895C28.3416 58.2421 28.0968 58.1894 27.8692 58.0909C27.6417 57.9924 27.4357 57.85 27.2632 57.6719C27.0906 57.4938 26.9548 57.2835 26.8636 57.0529C26.7723 56.8223 26.7274 56.576 26.7313 56.3281V40.731C26.7264 40.4825 26.7706 40.2354 26.8614 40.0039C26.9522 39.7725 27.0878 39.5612 27.2605 39.3823C27.4331 39.2034 27.6394 39.0604 27.8675 38.9614C28.0956 38.8625 28.3409 38.8095 28.5895 38.8057H49.9328C50.1808 38.8105 50.4254 38.8642 50.6526 38.9636C50.8798 39.063 51.0852 39.2061 51.2571 39.3849C51.4289 39.5637 51.5639 39.7746 51.6542 40.0056C51.7446 40.2366 51.7885 40.4831 51.7836 40.731Z" fill="#EAEEF0"/>
<path id="Vector_8" d="M51.7836 65.7758V81.343C51.7916 81.8425 51.6013 82.3248 51.2544 82.6843C50.9075 83.0437 50.4323 83.2511 49.9328 83.2609H28.5896C28.3416 83.257 28.0968 83.2043 27.8693 83.1058C27.6417 83.0073 27.4357 82.865 27.2632 82.6869C27.0906 82.5088 26.9548 82.2984 26.8636 82.0678C26.7723 81.8372 26.7274 81.5909 26.7313 81.343V65.7758C26.7274 65.5279 26.7723 65.2816 26.8636 65.051C26.9548 64.8204 27.0906 64.61 27.2632 64.4319C27.4357 64.2538 27.6417 64.1115 27.8693 64.013C28.0968 63.9145 28.3416 63.8618 28.5896 63.8579H49.9328C50.4323 63.8677 50.9075 64.0751 51.2544 64.4346C51.6013 64.794 51.7916 65.2763 51.7836 65.7758Z" fill="#EAEEF0"/>
<path id="Vector_9" d="M82.4478 45.03H55.7388C55.3291 45.03 54.9362 44.8672 54.6465 44.5775C54.3568 44.2878 54.194 43.8949 54.194 43.4852C54.194 43.0755 54.3568 42.6826 54.6465 42.3929C54.9362 42.1032 55.3291 41.9404 55.7388 41.9404H82.4478C82.8557 41.9462 83.2452 42.1108 83.5337 42.3993C83.8221 42.6877 83.9868 43.0773 83.9925 43.4852C83.9662 43.8863 83.795 44.2641 83.5108 44.5483C83.2266 44.8325 82.8488 45.0037 82.4478 45.03Z" fill="#EAEEF0"/>
<path id="Vector_10" opacity="0.4" d="M73.4478 46.9849H55.7388C54.8857 46.9849 54.194 47.6765 54.194 48.5296C54.194 49.3828 54.8857 50.0744 55.7388 50.0744H73.4478C74.3009 50.0744 74.9925 49.3828 74.9925 48.5296C74.9925 47.6765 74.3009 46.9849 73.4478 46.9849Z" fill="#EAEEF0"/>
<path id="Vector_11" opacity="0.2" d="M68.7463 52.0298H55.5448C54.7988 52.0298 54.194 52.6345 54.194 53.3805V53.7686C54.194 54.5146 54.7988 55.1193 55.5448 55.1193H68.7463C69.4923 55.1193 70.097 54.5146 70.097 53.7686V53.3805C70.097 52.6345 69.4923 52.0298 68.7463 52.0298Z" fill="#EAEEF0"/>
<path id="Vector_12" d="M83.7985 67.7982C83.3508 68.5445 82.8731 69.2907 82.3806 70.037H55.7388C55.5274 70.0517 55.3153 70.0228 55.1155 69.952C54.9158 69.8812 54.7328 69.7701 54.5778 69.6256C54.4229 69.481 54.2993 69.3062 54.2148 69.1118C54.1303 68.9175 54.0867 68.7079 54.0867 68.4959C54.0867 68.284 54.1303 68.0744 54.2148 67.8801C54.2993 67.6857 54.4229 67.5109 54.5778 67.3663C54.7328 67.2218 54.9158 67.1107 55.1155 67.0399C55.3153 66.9691 55.5274 66.9402 55.7388 66.9549H82.4478C82.7279 66.9612 83.0012 67.0428 83.2389 67.1912C83.4766 67.3396 83.6699 67.5493 83.7985 67.7982Z" fill="#EAEEF0"/>
<path id="Vector_13" opacity="0.4" d="M73.4478 72.0298H55.7388C54.8857 72.0298 54.194 72.7214 54.194 73.5746C54.194 74.4277 54.8857 75.1193 55.7388 75.1193H73.4478C74.3009 75.1193 74.9925 74.4277 74.9925 73.5746C74.9925 72.7214 74.3009 72.0298 73.4478 72.0298Z" fill="#EAEEF0"/>
<path id="Vector_14" opacity="0.2" d="M68.7463 77.0747H55.5448C54.7988 77.0747 54.194 77.6795 54.194 78.4255V78.8135C54.194 79.5595 54.7988 80.1643 55.5448 80.1643H68.7463C69.4923 80.1643 70.097 79.5595 70.097 78.8135V78.4255C70.097 77.6795 69.4923 77.0747 68.7463 77.0747Z" fill="#EAEEF0"/>
<path id="Vector_15" d="M32.7836 55.1191C44.3815 55.1191 53.7836 45.7171 53.7836 34.1191C53.7836 22.5212 44.3815 13.1191 32.7836 13.1191C21.1856 13.1191 11.7836 22.5212 11.7836 34.1191C11.7836 45.7171 21.1856 55.1191 32.7836 55.1191Z" fill="#EFBB48"/>
<path id="Vector_16" d="M25.0522 43.4698C23.7388 43.4698 23.0895 42.3579 23.6269 41.4624C23.8154 41.1862 24.0386 40.9354 24.291 40.7161L39.7089 25.2907C39.9137 25.0672 40.1358 24.8601 40.3731 24.6713C40.6256 24.4655 40.9482 24.3659 41.2728 24.3938C41.5973 24.4216 41.8983 24.5747 42.1119 24.8206C42.3524 25.0383 42.5003 25.3399 42.5252 25.6633C42.5502 25.9866 42.4504 26.3073 42.2463 26.5594C42.1281 26.7247 41.993 26.8773 41.8433 27.0146C36.5846 32.2684 31.3234 37.5246 26.0597 42.7833C25.7518 43.0507 25.4137 43.2811 25.0522 43.4698Z" fill="white"/>
<path id="Vector_17" d="M32.403 27.6119C32.3956 28.5364 32.1145 29.4379 31.5953 30.2028C31.076 30.9677 30.3418 31.5616 29.4853 31.9096C28.6288 32.2576 27.6885 32.344 26.7829 32.1581C25.8773 31.9721 25.0471 31.5221 24.397 30.8648C23.747 30.2074 23.3062 29.3723 23.1304 28.4647C22.9545 27.5571 23.0514 26.6177 23.409 25.7652C23.7665 24.9126 24.3685 24.185 25.1391 23.6743C25.9097 23.1636 26.8143 22.8926 27.7388 22.8955C28.9788 22.915 30.1617 23.4199 31.0337 24.3016C31.9057 25.1834 32.3973 26.3718 32.403 27.6119ZM25.791 27.5597C25.7861 27.8135 25.8313 28.0658 25.9239 28.3022C26.0165 28.5386 26.1548 28.7544 26.3308 28.9374C26.5068 29.1203 26.7171 29.2668 26.9497 29.3685C27.1824 29.4701 27.4327 29.525 27.6866 29.5299C27.9404 29.5348 28.1927 29.4896 28.4291 29.397C28.6654 29.3044 28.8813 29.1661 29.0642 28.9901C29.2472 28.8141 29.3936 28.6038 29.4953 28.3712C29.597 28.1385 29.6518 27.8882 29.6567 27.6343C29.6616 27.3805 29.6165 27.1282 29.5239 26.8918C29.4313 26.6555 29.293 26.4396 29.117 26.2567C28.941 26.0737 28.7306 25.9273 28.498 25.8256C28.2654 25.7239 28.015 25.6691 27.7612 25.6642C27.5074 25.6593 27.2551 25.7044 27.0187 25.797C26.7823 25.8896 26.5665 26.0279 26.3835 26.2039C26.2006 26.3799 26.0541 26.5903 25.9525 26.8229C25.8508 27.0555 25.7959 27.3059 25.791 27.5597Z" fill="white"/>
<path id="Vector_18" d="M33.0149 40.6717C33.0109 40.0571 33.1291 39.4479 33.3624 38.8793C33.5958 38.3107 33.9398 37.7941 34.3744 37.3595C34.809 36.925 35.3255 36.581 35.8941 36.3476C36.4627 36.1143 37.072 35.9961 37.6866 36.0001C38.9295 36.0001 40.1216 36.4939 41.0005 37.3728C41.8794 38.2517 42.3731 39.4437 42.3731 40.6867C42.3731 41.9296 41.8794 43.1217 41.0005 44.0006C40.1216 44.8795 38.9295 45.3732 37.6866 45.3732C37.0694 45.3772 36.4577 45.2582 35.8871 45.0229C35.3166 44.7877 34.7986 44.4411 34.3636 44.0033C33.9286 43.5655 33.5853 43.0454 33.3537 42.4734C33.1221 41.9013 33.007 41.2888 33.0149 40.6717ZM37.7089 42.612C37.96 42.614 38.209 42.5659 38.4413 42.4705C38.6736 42.3752 38.8845 42.2344 39.0617 42.0565C39.2389 41.8786 39.3788 41.6671 39.4733 41.4345C39.5678 41.2018 39.6149 40.9527 39.6119 40.7016C39.617 40.4418 39.5695 40.1837 39.4722 39.9428C39.3749 39.7018 39.2299 39.4831 39.0458 39.2997C38.8617 39.1163 38.6424 38.9721 38.4011 38.8757C38.1598 38.7794 37.9015 38.7328 37.6418 38.7389C37.1336 38.7486 36.6491 38.9558 36.2911 39.3166C35.933 39.6774 35.7296 40.1635 35.7239 40.6717C35.7207 40.9312 35.7702 41.1887 35.8694 41.4285C35.9686 41.6683 36.1154 41.8855 36.301 42.0669C36.4866 42.2483 36.7071 42.3901 36.9491 42.4838C37.1911 42.5775 37.4496 42.6211 37.7089 42.612Z" fill="white"/>
</g>
</g>
</g>
<defs>
<clipPath id="clip0_12_344">
<rect width="90" height="90" fill="white"/>
</clipPath>
</defs>
</svg>
